<?xml version="1.0" encoding="utf-8"?>
<!-- Generator: Adobe Illustrator 22.1.0, SVG Export Plug-In . SVG Version: 6.00 Build 0)  -->
<svg version="1.1" id="Layer_1" xmlns="http://www.w3.org/2000/svg" xmlns:xlink="http://www.w3.org/1999/xlink" x="0px" y="0px"
	 viewBox="0 0 1080.8 616.4" style="enable-background:new 0 0 1080.8 616.4;" xml:space="preserve">
<style type="text/css">
	.st0{fill:#D68027;}
</style>
<g>
	<path class="st0" d="M1080.8,616.5c-360,0-720.8,0-1080.8,0C0,423.7,0,231,0,38.3c1.2-0.2,2.4-0.3,3.7-0.4
		c31.5-1.1,63,0.8,94.3,4.3c47.5,5.3,94.1,14.9,140.3,26.9c17.7,4.6,35.1,10.6,53.1,14.3c17.6,3.7,35.7,4.6,53.4,7.3
		c10.7,1.7,21.5,3.4,31.5,7.7c12.1,5.2,24.7,7.9,37.9,7c17.5-1.2,34.7-4.1,52.1-6.1c16-1.9,32.1-3.8,48.2-1.8c7.9,1,15.8,2.4,23.8,2
		c35.7-2.1,71.2-5.2,106.5-11.1c12.7-2.1,25.7-3.5,37.4-9.8c2.2-1.2,4.7-1.7,7.1-2.2c9.6-1.8,19.2-0.2,28.7,1.3
		c16.9,2.7,33.9,4.7,51.1,4c16.1-0.7,31.7-3.4,46.2-11c30.6-15.8,63.3-23.2,97.7-23.6c34.2-0.4,68-4.1,101.5-11
		c14.8-3.1,29.1-7,41.3-16.5c7.2-5.6,14.5-11,21.8-16.5c1-0.7,2.1-1.7,3.2-2.3"/>
</g>
</svg>
