<?xml version="1.0" encoding="utf-8"?>
<!-- Generator: Adobe Illustrator 22.1.0, SVG Export Plug-In . SVG Version: 6.00 Build 0)  -->
<svg version="1.1" id="Layer_1" xmlns="http://www.w3.org/2000/svg" xmlns:xlink="http://www.w3.org/1999/xlink" x="0px" y="0px"
	 viewBox="0 0 1081 612.8" style="enable-background:new 0 0 1081 612.8;" xml:space="preserve">
<style type="text/css">
	.st0{fill:#E6B520;}
</style>
<g>
	<path class="st0" d="M0,612.8V4.7c0,0,35.1,15.7,37.5,17.6c11.2,8.9,19.2,10.7,33.2,13.2c33.5,5.9,67.3,9.5,101.4,9
		c15.6-0.3,31.2-0.1,46.8,2c19.7,2.6,38.6,8.3,56.5,16.7c16.7,7.8,34,10.9,52.3,10.8c17.7-0.1,35.1-2.9,52.3-6.5
		c15.2-3.2,29.8-2.4,43.7,4.9c1.2,0.6,2.6,1.1,3.9,1.2c12.6,1.6,25.2,3.5,37.9,4.7c19.7,1.7,39.4,3.2,59.1,4.3
		c15.1,0.9,30.2,2.1,45.3,0.3c7-0.9,13.9-2.8,21.1-3c23.1-0.9,45.9,2.2,68.8,4.1c12.1,1,24.2,2.5,36.2,0.4c10-1.8,19.2-6,28.7-9.5
		c22.3-8.4,45-15.7,67.4-23.7C822.4,40.3,853.3,32,885,26.4c28.7-5,57.4-9.2,86.3-12.7c24.7-2.9,49.4-5.4,74.2-7.5
		c11.6-1.1,23.9-2.1,35.5-3c0,201.9,0,609.6,0,609.6"/>
</g>
</svg>
