<?xml version="1.0" encoding="utf-8"?>
<!-- Generator: Adobe Illustrator 22.1.0, SVG Export Plug-In . SVG Version: 6.00 Build 0)  -->
<svg version="1.1" id="Layer_1" xmlns="http://www.w3.org/2000/svg" xmlns:xlink="http://www.w3.org/1999/xlink" x="0px" y="0px"
	 viewBox="0 0 1085.2 600.2" style="enable-background:new 0 0 1085.2 600.2;" xml:space="preserve">
<style type="text/css">
	.st0{fill:#FEFEFE;}
	.st1{fill:#F5FBFC;}
	.st2{fill:#16B0BE;}
</style>
<path class="st0" d="M1084.2,600c0-199.8,0-399.5,0-599.2c0.2,0.2,0.8-0.4,0.8,0.4c0,1,0,2,0,3c0,197.5,0,395,0,592.5
	C1085,597.7,1085.8,599.2,1084.2,600z"/>
<path class="st1" d="M0.5,55.5c0.2,0,0.4,0,0.6,0c0,4.5,0.6,9-0.6,13.5C0.5,64.5,0.5,60,0.5,55.5z"/>
<path class="st2" d="M1084.3,600c0-199.6,0-399.7,0-599.4c-0.5,0-1,0.4-1.5,0.4c-10.6,3.7-21.3,6.6-32.6,7.5
	c-2.6,0.2-5.2,0.5-7.8,0.9c-5.1,0.9-10,2.6-13,7.2c-9.1,14-22.9,20.8-38.3,24.8c-17.1,4.4-34.6,6-52.1,8.3
	c-25.4,3.3-50.9,2.3-76.4,2.6c-30.3,0.3-59,6.6-86.3,19.4c-18.2,8.5-37.3,10.4-57,9.9c-16.5-0.4-32.4-3.9-48.5-6.8
	c-13.6-2.4-26.5-2-39,4.5c-5,2.6-11,2.4-16.5,3.2c-39.3,5.9-78.8,7.9-118.4,9c-6.6,0.2-13.2-0.5-19.7-1.9
	c-15.3-3.2-30.8-2.3-46.3-1.2c-19.8,1.3-39.5,4.3-59.4,4.8c-13.3,0.3-25.7-2.9-37.6-8.6c-8.9-4.3-18.6-5.6-28.2-7.1
	c-23-3.5-46.2-5-69.3-7.2c-21.2-2-41.3-7.8-61.2-15c-26.5-9.6-52.9-19.6-79.9-27.6C69.6,20,43.5,15.2,16.9,13.3
	C6.3,12.4,0,0.2,0,0.2v600"/>
</svg>
